<mxfile host="app.diagrams.net" modified="2023-04-27T18:52:14.793Z" agent="Mozilla/5.0 (X11; Linux x86_64) AppleWebKit/537.36 (KHTML, like Gecko) Chrome/112.0.0.0 Safari/537.36" etag="DFYWrPam3nIDEfW8OJg4" version="21.1.8" type="github">
  <diagram name="Page-1" id="nWEz1wkiCeAuz4QcHu82">
    <mxGraphModel dx="1434" dy="1869" grid="1" gridSize="10" guides="1" tooltips="1" connect="1" arrows="1" fold="1" page="1" pageScale="1" pageWidth="827" pageHeight="1169" math="0" shadow="0">
      <root>
        <mxCell id="0" />
        <mxCell id="1" parent="0" />
        <mxCell id="PjA5VoXmODJALqgp01DZ-2" value="" style="rounded=0;whiteSpace=wrap;html=1;align=left;fillColor=#dae8fc;strokeColor=#6c8ebf;" vertex="1" parent="1">
          <mxGeometry x="270" y="90" width="820" height="590" as="geometry" />
        </mxCell>
        <mxCell id="PjA5VoXmODJALqgp01DZ-3" value="" style="rounded=0;whiteSpace=wrap;html=1;fillColor=#d5e8d4;strokeColor=#82b366;" vertex="1" parent="1">
          <mxGeometry x="280" y="160" width="800" height="510" as="geometry" />
        </mxCell>
        <mxCell id="PjA5VoXmODJALqgp01DZ-4" value="" style="rounded=0;whiteSpace=wrap;html=1;fillColor=#fff2cc;strokeColor=#d6b656;" vertex="1" parent="1">
          <mxGeometry x="530" y="260" width="530" height="360" as="geometry" />
        </mxCell>
        <mxCell id="PjA5VoXmODJALqgp01DZ-5" value="" style="rounded=0;whiteSpace=wrap;html=1;fillColor=#f8cecc;strokeColor=#b85450;" vertex="1" parent="1">
          <mxGeometry x="300" y="260" width="200" height="360" as="geometry" />
        </mxCell>
        <mxCell id="PjA5VoXmODJALqgp01DZ-6" value="Google Cloud Platform" style="rounded=0;whiteSpace=wrap;html=1;dashed=1;dashPattern=1 4;" vertex="1" parent="1">
          <mxGeometry x="270" y="90" width="130" height="30" as="geometry" />
        </mxCell>
        <mxCell id="PjA5VoXmODJALqgp01DZ-9" value="Public Subnet" style="rounded=0;whiteSpace=wrap;html=1;dashed=1;dashPattern=1 4;" vertex="1" parent="1">
          <mxGeometry x="300" y="260" width="120" height="30" as="geometry" />
        </mxCell>
        <mxCell id="PjA5VoXmODJALqgp01DZ-10" value="Private Subnet" style="rounded=0;whiteSpace=wrap;html=1;dashed=1;dashPattern=1 4;" vertex="1" parent="1">
          <mxGeometry x="550" y="260" width="120" height="30" as="geometry" />
        </mxCell>
        <mxCell id="PjA5VoXmODJALqgp01DZ-11" value="VPC" style="rounded=0;whiteSpace=wrap;html=1;dashed=1;dashPattern=1 4;" vertex="1" parent="1">
          <mxGeometry x="280" y="160" width="120" height="30" as="geometry" />
        </mxCell>
        <mxCell id="PjA5VoXmODJALqgp01DZ-14" value="" style="rounded=0;whiteSpace=wrap;html=1;fillColor=#e1d5e7;strokeColor=#9673a6;" vertex="1" parent="1">
          <mxGeometry x="580" y="310" width="320" height="270" as="geometry" />
        </mxCell>
        <mxCell id="PjA5VoXmODJALqgp01DZ-15" value="K8s Cluster" style="rounded=0;whiteSpace=wrap;html=1;" vertex="1" parent="1">
          <mxGeometry x="580" y="310" width="120" height="20" as="geometry" />
        </mxCell>
        <mxCell id="PjA5VoXmODJALqgp01DZ-17" value="EFK (Elastic Filebeat Kibana)" style="rounded=0;whiteSpace=wrap;html=1;" vertex="1" parent="1">
          <mxGeometry x="920" y="320" width="120" height="60" as="geometry" />
        </mxCell>
        <mxCell id="PjA5VoXmODJALqgp01DZ-18" value="Monitoring Prometheus/Grafana" style="rounded=0;whiteSpace=wrap;html=1;" vertex="1" parent="1">
          <mxGeometry x="920" y="390" width="120" height="60" as="geometry" />
        </mxCell>
        <mxCell id="PjA5VoXmODJALqgp01DZ-19" value="Jenkins" style="rounded=0;whiteSpace=wrap;html=1;" vertex="1" parent="1">
          <mxGeometry x="920" y="460" width="120" height="60" as="geometry" />
        </mxCell>
        <mxCell id="PjA5VoXmODJALqgp01DZ-20" value="Pod (Back)" style="rounded=0;whiteSpace=wrap;html=1;" vertex="1" parent="1">
          <mxGeometry x="600" y="380" width="120" height="60" as="geometry" />
        </mxCell>
        <mxCell id="PjA5VoXmODJALqgp01DZ-21" value="Pod (File Storage)" style="rounded=0;whiteSpace=wrap;html=1;" vertex="1" parent="1">
          <mxGeometry x="600" y="490" width="120" height="60" as="geometry" />
        </mxCell>
        <mxCell id="PjA5VoXmODJALqgp01DZ-22" value="Pod(Front)" style="rounded=0;whiteSpace=wrap;html=1;" vertex="1" parent="1">
          <mxGeometry x="745" y="380" width="120" height="60" as="geometry" />
        </mxCell>
        <mxCell id="PjA5VoXmODJALqgp01DZ-23" value="Pod(Mongo)" style="rounded=0;whiteSpace=wrap;html=1;" vertex="1" parent="1">
          <mxGeometry x="750" y="490" width="120" height="60" as="geometry" />
        </mxCell>
        <mxCell id="PjA5VoXmODJALqgp01DZ-24" value="" style="rounded=0;whiteSpace=wrap;html=1;" vertex="1" parent="1">
          <mxGeometry x="295" y="-40" width="190" height="60" as="geometry" />
        </mxCell>
        <mxCell id="PjA5VoXmODJALqgp01DZ-35" style="edgeStyle=orthogonalEdgeStyle;rounded=0;orthogonalLoop=1;jettySize=auto;html=1;entryX=-0.008;entryY=0.538;entryDx=0;entryDy=0;entryPerimeter=0;" edge="1" parent="1" source="PjA5VoXmODJALqgp01DZ-26" target="PjA5VoXmODJALqgp01DZ-32">
          <mxGeometry relative="1" as="geometry">
            <Array as="points">
              <mxPoint x="100" y="493" />
            </Array>
          </mxGeometry>
        </mxCell>
        <mxCell id="PjA5VoXmODJALqgp01DZ-26" value="Internet" style="ellipse;shape=cloud;whiteSpace=wrap;html=1;fontSize=17;fillColor=#dae8fc;strokeColor=#6c8ebf;" vertex="1" parent="1">
          <mxGeometry y="300" width="200" height="130" as="geometry" />
        </mxCell>
        <mxCell id="PjA5VoXmODJALqgp01DZ-30" value="" style="endArrow=classic;html=1;rounded=0;entryX=0;entryY=0;entryDx=0;entryDy=30;entryPerimeter=0;" edge="1" parent="1" source="PjA5VoXmODJALqgp01DZ-26" target="PjA5VoXmODJALqgp01DZ-31">
          <mxGeometry width="50" height="50" relative="1" as="geometry">
            <mxPoint x="460" y="420" as="sourcePoint" />
            <mxPoint x="330" y="370" as="targetPoint" />
          </mxGeometry>
        </mxCell>
        <mxCell id="PjA5VoXmODJALqgp01DZ-31" value="Load Balancer" style="shape=cube;whiteSpace=wrap;html=1;boundedLbl=1;backgroundOutline=1;darkOpacity=0.05;darkOpacity2=0.1;" vertex="1" parent="1">
          <mxGeometry x="340" y="340" width="120" height="80" as="geometry" />
        </mxCell>
        <mxCell id="PjA5VoXmODJALqgp01DZ-32" value="VPN Host" style="shape=cube;whiteSpace=wrap;html=1;boundedLbl=1;backgroundOutline=1;darkOpacity=0.05;darkOpacity2=0.1;" vertex="1" parent="1">
          <mxGeometry x="340" y="450" width="120" height="80" as="geometry" />
        </mxCell>
        <mxCell id="PjA5VoXmODJALqgp01DZ-39" value="" style="endArrow=classic;html=1;rounded=0;entryX=0;entryY=0.278;entryDx=0;entryDy=0;entryPerimeter=0;" edge="1" parent="1" source="PjA5VoXmODJALqgp01DZ-31" target="PjA5VoXmODJALqgp01DZ-14">
          <mxGeometry width="50" height="50" relative="1" as="geometry">
            <mxPoint x="460" y="420" as="sourcePoint" />
            <mxPoint x="510" y="370" as="targetPoint" />
          </mxGeometry>
        </mxCell>
        <mxCell id="PjA5VoXmODJALqgp01DZ-41" value="" style="endArrow=classic;html=1;rounded=0;exitX=1;exitY=0.5;exitDx=0;exitDy=0;exitPerimeter=0;" edge="1" parent="1" source="PjA5VoXmODJALqgp01DZ-32">
          <mxGeometry width="50" height="50" relative="1" as="geometry">
            <mxPoint x="460" y="420" as="sourcePoint" />
            <mxPoint x="530" y="490" as="targetPoint" />
          </mxGeometry>
        </mxCell>
      </root>
    </mxGraphModel>
  </diagram>
</mxfile>
